<?xml version="1.0" encoding="utf-8"?>
<!-- Generator: Adobe Illustrator 17.0.0, SVG Export Plug-In . SVG Version: 6.00 Build 0)  -->
<!DOCTYPE svg PUBLIC "-//W3C//DTD SVG 1.1//EN" "http://www.w3.org/Graphics/SVG/1.1/DTD/svg11.dtd">
<svg version="1.1" id="Layer_1" xmlns="http://www.w3.org/2000/svg" xmlns:xlink="http://www.w3.org/1999/xlink" x="0px" y="0px"
	 width="612px" height="792px" viewBox="0 0 612 792" enable-background="new 0 0 612 792" xml:space="preserve">
<path fill="none" stroke="#000000" stroke-miterlimit="10" d="M325.531,392.506c0-0.002,0-0.004,0-0.006
	c0-1.835-0.137-3.637-0.385-5.403l-9.791-1.925c-0.506-1.962-1.215-3.841-2.095-5.62l6.159-7.856
	c-0.982-1.526-2.068-2.977-3.25-4.345l-9.283,3.676c-1.466-1.356-3.069-2.565-4.789-3.601l0.934-9.942
	c-1.635-0.748-3.329-1.386-5.077-1.902l-5.828,8.12c-1.655-0.291-3.355-0.451-5.094-0.451c-0.294,0-0.585,0.014-0.877,0.022
	l-4.594-8.878c-1.811,0.258-3.58,0.644-5.301,1.145l-0.512,9.97c-1.86,0.779-3.621,1.745-5.262,2.874l-8.651-4.977
	c-1.369,1.187-2.652,2.467-3.842,3.833l4.959,8.663c-1.132,1.639-2.105,3.397-2.887,5.255l-9.97,0.49
	c-0.504,1.72-0.895,3.487-1.157,5.297l8.869,4.614c-0.01,0.313-0.024,0.626-0.024,0.941c0,1.716,0.156,3.396,0.44,5.031
	l-8.132,5.809c0.513,1.749,1.146,3.446,1.891,5.082l9.945-0.912c1.032,1.723,2.236,3.33,3.589,4.798l-3.696,9.274
	c1.365,1.185,2.814,2.274,4.338,3.26l7.87-6.142c1.777,0.884,3.655,1.596,5.615,2.107l1.904,9.798
	c1.768,0.252,3.572,0.39,5.409,0.394l3.303-9.429c2.022-0.222,3.981-0.652,5.858-1.265l6.903,7.218
	c1.654-0.756,3.243-1.625,4.761-2.598l-2.318-9.714c1.554-1.262,2.976-2.68,4.241-4.231l9.708,2.339
	c0.977-1.516,1.849-3.103,2.609-4.755l-7.203-6.92c0.617-1.875,1.051-3.833,1.277-5.854L325.531,392.506z"/>
<circle fill="none" stroke="#000000" stroke-miterlimit="10" cx="287.234" cy="392.696" r="22.468"/>
</svg>
